<svg width="100" height="80" viewBox="0 0 100 80" fill="none" xmlns="http://www.w3.org/2000/svg">
<path d="M75 55C71.5 55 68.5417 53.7917 66.125 51.375C63.7083 48.9583 62.5 46 62.5 42.5C62.5 39 63.7083 36.0417 66.125 33.625C68.5417 31.2083 71.5 30 75 30C78.5 30 81.4583 31.2083 83.875 33.625C86.2917 36.0417 87.5 39 87.5 42.5C87.5 46 86.2917 48.9583 83.875 51.375C81.4583 53.7917 78.5 55 75 55ZM50 80V73C50 71 50.5208 69.1458 51.5625 67.4375C52.6042 65.7292 54.0833 64.5 56 63.75C59 62.5 62.1042 61.5625 65.3125 60.9375C68.5208 60.3125 71.75 60 75 60C78.25 60 81.4792 60.3125 84.6875 60.9375C87.8958 61.5625 91 62.5 94 63.75C95.9167 64.5 97.3958 65.7292 98.4375 67.4375C99.4792 69.1458 100 71 100 73V80H50ZM40 40C34.5 40 29.7917 38.0417 25.875 34.125C21.9583 30.2083 20 25.5 20 20C20 14.5 21.9583 9.79167 25.875 5.875C29.7917 1.95833 34.5 0 40 0C45.5 0 50.2083 1.95833 54.125 5.875C58.0417 9.79167 60 14.5 60 20C60 25.5 58.0417 30.2083 54.125 34.125C50.2083 38.0417 45.5 40 40 40ZM0 80V66C0 63.1667 0.708333 60.5625 2.125 58.1875C3.54167 55.8125 5.5 54 8 52.75C13 50.25 18.1875 48.3333 23.5625 47C28.9375 45.6667 34.4167 45 40 45C42.9167 45 45.8333 45.25 48.75 45.75C51.6667 46.25 54.5833 46.8333 57.5 47.5L53.25 51.75L49 56C47.5 55.5833 46 55.3125 44.5 55.1875C43 55.0625 41.5 55 40 55C35.1667 55 30.4375 55.5833 25.8125 56.75C21.1875 57.9167 16.75 59.5833 12.5 61.75C11.6667 62.1667 11.0417 62.75 10.625 63.5C10.2083 64.25 10 65.0833 10 66V70H40V80H0ZM40 30C42.75 30 45.1042 29.0208 47.0625 27.0625C49.0208 25.1042 50 22.75 50 20C50 17.25 49.0208 14.8958 47.0625 12.9375C45.1042 10.9792 42.75 10 40 10C37.25 10 34.8958 10.9792 32.9375 12.9375C30.9792 14.8958 30 17.25 30 20C30 22.75 30.9792 25.1042 32.9375 27.0625C34.8958 29.0208 37.25 30 40 30Z" fill="url(#paint0_linear_2_8)"/>
<defs>
<linearGradient id="paint0_linear_2_8" x1="20.5" y1="-8.22037e-07" x2="105" y2="89.5" gradientUnits="userSpaceOnUse">
<stop offset="0.12" stop-color="#1a3a8f"/>
<stop offset="0.47085" stop-color="#8f1a6b"/>
<stop offset="0.847657" stop-color="#e33f16"/>
</linearGradient>
</defs>
</svg>
