<svg width="100" height="90" viewBox="0 0 100 90" fill="none" xmlns="http://www.w3.org/2000/svg">
<path d="M27.591 89.6358C26.564 89.6358 25.6069 89.3791 24.7199 88.8655C23.8329 88.352 23.1559 87.6284 22.6891 86.6947L11.7647 67.2269H19.888L25.4902 78.4314H38.3754V72.8291H28.8515L23.2493 61.6246H8.68347L0.70028 47.619C0.513539 47.1522 0.35014 46.6853 0.210084 46.2185C0.070028 45.7516 0 45.2848 0 44.8179C0 44.4444 0.233427 43.5107 0.70028 42.0168L8.68347 28.0112H23.2493L28.8515 16.8067H38.3754V11.2045H25.4902L19.888 22.409H11.7647L22.6891 2.94118C23.1559 2.00747 23.8329 1.28385 24.7199 0.770308C25.6069 0.256769 26.564 0 27.591 0H41.1765C42.7638 0 44.0943 0.536881 45.1681 1.61064C46.2418 2.68441 46.7787 4.01494 46.7787 5.60224V28.0112H38.3754L32.7731 33.6134H46.7787V50.4202H34.4538L28.8515 39.2157H15.9664L10.3641 44.8179H25.4902L31.0924 56.0224H46.7787V84.0336C46.7787 85.6209 46.2418 86.9514 45.1681 88.0252C44.0943 89.099 42.7638 89.6358 41.1765 89.6358H27.591ZM60.7843 89.6358C57.7031 89.6358 55.0654 88.5387 52.8712 86.3445C50.6769 84.1503 49.5798 81.5126 49.5798 78.4314C49.5798 76.2838 50.0934 74.3931 51.1205 72.7591C52.1475 71.1251 53.5014 69.7946 55.1821 68.7675V20.8683C53.5014 19.8413 52.1475 18.5107 51.1205 16.8767C50.0934 15.2428 49.5798 13.352 49.5798 11.2045C49.5798 8.12325 50.6769 5.48553 52.8712 3.29132C55.0654 1.09711 57.7031 0 60.7843 0C63.8655 0 66.5033 1.09711 68.6975 3.29132C70.8917 5.48553 71.9888 8.12325 71.9888 11.2045C71.9888 13.352 71.4753 15.2428 70.4482 16.8767C69.4211 18.5107 68.0672 19.8413 66.3866 20.8683V35.014L77.591 28.2913C77.591 25.1167 78.6881 22.409 80.8824 20.1681C83.0766 17.9272 85.7143 16.8067 88.7955 16.8067C91.8768 16.8067 94.5145 17.9038 96.7087 20.098C98.9029 22.2922 100 24.93 100 28.0112C100 31.0924 98.9029 33.7302 96.7087 35.9244C94.5145 38.1186 91.8768 39.2157 88.7955 39.2157C87.7684 39.2157 86.8114 39.099 85.9244 38.8655C85.0374 38.6321 84.1737 38.282 83.3333 37.8151L70.5882 45.5182L84.7339 56.7227C85.3875 56.4426 86.0411 56.2558 86.6947 56.1625C87.3483 56.0691 88.0486 56.0224 88.7955 56.0224C91.8768 56.0224 94.5145 57.1195 96.7087 59.3137C98.9029 61.5079 100 64.1457 100 67.2269C100 70.3081 98.9029 72.9458 96.7087 75.1401C94.5145 77.3343 91.8768 78.4314 88.7955 78.4314C85.3408 78.4314 82.5163 77.1242 80.3221 74.5098C78.1279 71.8954 77.2642 68.9076 77.7311 65.5462L66.3866 56.4426V68.9076C68.0672 69.9346 69.3978 71.2652 70.3782 72.8992C71.3585 74.5331 71.8487 76.3772 71.8487 78.4314C71.8487 81.5126 70.775 84.1503 68.6275 86.3445C66.4799 88.5387 63.8655 89.6358 60.7843 89.6358Z" fill="url(#paint0_linear_2_6)"/>
<defs>
<linearGradient id="paint0_linear_2_6" x1="-2.01423e-08" y1="-6.5" x2="114" y2="96" gradientUnits="userSpaceOnUse">
<stop offset="0.12" stop-color="#1a3a8f"/>
<stop offset="0.47" stop-color="#8f1a6b"/>
<stop offset="0.85" stop-color="#e33f16"/>
</linearGradient>
</defs>
</svg>
